<svg version="1.1" xmlns="http://www.w3.org/2000/svg" viewBox="0 0 1378.75 644.9999999999999" width="1378.75" height="644.9999999999999">
  <!-- svg-source:excalidraw -->
  
  <defs>
    <style class="style-fonts">
      @font-face {
        font-family: "Virgil";
        src: url("https://excalidraw.com/Virgil.woff2");
      }
      @font-face {
        font-family: "Cascadia";
        src: url("https://excalidraw.com/Cascadia.woff2");
      }
    </style>
    
  </defs>
  <rect x="0" y="0" width="1378.75" height="644.9999999999999" fill="#ffffff"></rect><g stroke-linecap="round" transform="translate(619.76742466007 25.126983240672644) rotate(0 365.5 117.875)"><path d="M-0.31 -0.41 C176.57 2.23, 355.04 3.57, 730.64 -0.21 M0.31 -0.09 C207.37 3.15, 414.7 2.6, 731.24 0.3 M730.92 -0.64 C731.32 48.3, 732.95 96.15, 731.2 235.08 M730.33 -0.66 C730.35 73.86, 729.47 147.55, 730.51 235.19 M730.87 235.43 C510.33 236.04, 289.35 235.01, 0.09 235.62 M731.39 235.66 C555.25 238.48, 379.36 238.44, -0.26 235.9 M1.41 236.56 C-0.59 143.83, -0.26 54.69, 0.86 -0.91 M0.16 235.67 C0.01 186.07, -1.02 137.47, -0.19 0.77" stroke="#1e1e1e" stroke-width="1" fill="none"></path></g><g transform="translate(634.76742466007 37.9269832406726) rotate(0 41.015625 16.799999999999997)"><text x="0" y="0" font-family="Cascadia, Segoe UI Emoji" font-size="28px" fill="#1e1e1e" text-anchor="start" style="white-space: pre;" direction="ltr" dominant-baseline="text-before-edge">Types</text></g><g transform="translate(638.76742466007 99.52698324067262) rotate(0 346.875 67.19999999999999)"><text x="0" y="0" font-family="Cascadia, Segoe UI Emoji" font-size="16px" fill="#1e1e1e" text-anchor="start" style="white-space: pre;" direction="ltr" dominant-baseline="text-before-edge">uuid: hex representation of UUID with dash separation</text><text x="0" y="19.2" font-family="Cascadia, Segoe UI Emoji" font-size="16px" fill="#1e1e1e" text-anchor="start" style="white-space: pre;" direction="ltr" dominant-baseline="text-before-edge">mimetype: string representation of mime type</text><text x="0" y="38.4" font-family="Cascadia, Segoe UI Emoji" font-size="16px" fill="#1e1e1e" text-anchor="start" style="white-space: pre;" direction="ltr" dominant-baseline="text-before-edge">         - special value "application/vnd.blubywaff.collection" ($coltype)</text><text x="0" y="57.599999999999994" font-family="Cascadia, Segoe UI Emoji" font-size="16px" fill="#1e1e1e" text-anchor="start" style="white-space: pre;" direction="ltr" dominant-baseline="text-before-edge">tagstr: characters must be in range [a-z\-] and have len &gt;=3</text><text x="0" y="76.8" font-family="Cascadia, Segoe UI Emoji" font-size="16px" fill="#1e1e1e" text-anchor="start" style="white-space: pre;" direction="ltr" dominant-baseline="text-before-edge">        - must not be case sensitive</text><text x="0" y="96" font-family="Cascadia, Segoe UI Emoji" font-size="16px" fill="#1e1e1e" text-anchor="start" style="white-space: pre;" direction="ltr" dominant-baseline="text-before-edge">datetime: standard datetime representation in golang/neo4j</text><text x="0" y="115.19999999999999" font-family="Cascadia, Segoe UI Emoji" font-size="16px" fill="#1e1e1e" text-anchor="start" style="white-space: pre;" direction="ltr" dominant-baseline="text-before-edge">uint: obvious</text></g><g stroke-linecap="round" transform="translate(10 10) rotate(0 679.375 312.49999999999994)"><path d="M-0.21 0.6 C431.94 -1.22, 865.42 -1.79, 1358.93 -0.24 M0.13 0.37 C306.84 2.05, 613.85 2.29, 1358.62 -0.18 M1358.85 0.34 C1359.47 201.74, 1358.18 402.6, 1359.06 625.7 M1359.04 0 C1356.84 169.67, 1356.75 338.65, 1358.46 625.35 M1359.49 625.47 C914.67 625.8, 471.01 624.45, -0.37 625.06 M1358.79 625.12 C818.34 619.5, 277.72 619.71, -0.12 624.61 M-0.76 624.4 C-2.08 421.71, -1.58 217.74, -0.56 -0.78 M0.26 624.84 C2.7 443.54, 2.54 262.24, -0.36 0.11" stroke="#000000" stroke-width="1" fill="none"></path></g><g transform="translate(21.25 20) rotate(0 158.203125 21.599999999999994)"><text x="0" y="0" font-family="Cascadia, Segoe UI Emoji" font-size="36px" fill="#000000" text-anchor="start" style="white-space: pre;" direction="ltr" dominant-baseline="text-before-edge">Graph Structure</text></g><g stroke-linecap="round" transform="translate(275.5476248264313 389.5247933268547) rotate(0 38.75 38.75)"><path d="M36.85 0.98 C44.18 -0.21, 53.44 0.97, 59.72 4.92 C66 8.87, 71.75 17.33, 74.52 24.67 C77.29 32.01, 78.05 41.84, 76.33 48.97 C74.62 56.1, 69.99 62.55, 64.24 67.43 C58.48 72.31, 49.42 77.42, 41.8 78.23 C34.19 79.05, 25.03 76.54, 18.56 72.32 C12.1 68.1, 6.02 59.98, 3.03 52.91 C0.03 45.85, -1.16 37.16, 0.6 29.91 C2.35 22.66, 6.68 14.48, 13.57 9.42 C20.45 4.35, 36.38 0.86, 41.9 -0.5 C47.43 -1.86, 46.88 0.63, 46.72 1.26 M25.48 1.18 C32.19 -1.76, 43.14 -0.36, 50.44 2.15 C57.75 4.66, 64.91 10.57, 69.31 16.27 C73.7 21.97, 76.57 28.95, 76.81 36.36 C77.06 43.77, 75.15 54.4, 70.76 60.72 C66.38 67.05, 57.83 71.67, 50.51 74.31 C43.19 76.94, 34 78.7, 26.84 76.53 C19.67 74.36, 12.22 67.63, 7.52 61.31 C2.83 55, -0.93 46.11, -1.32 38.65 C-1.72 31.18, 0.74 22.79, 5.17 16.54 C9.61 10.3, 21.93 3.44, 25.29 1.19 C28.65 -1.07, 25.19 2.16, 25.33 3.02" stroke="#000000" stroke-width="1" fill="none"></path></g><g transform="translate(306.194112055452 411.57440555587596) rotate(0 8.203125 16.80000000000001)"><text x="8.203125" y="0" font-family="Cascadia, Segoe UI Emoji" font-size="28px" fill="#000000" text-anchor="middle" style="white-space: pre;" direction="ltr" dominant-baseline="text-before-edge">R</text></g><g stroke-linecap="round" transform="translate(285.5476248264313 513.2747933268547) rotate(0 38.75 38.75)"><path d="M51.28 1.41 C58.17 3.27, 65.39 10.23, 69.83 16.33 C74.27 22.42, 77.84 30.52, 77.92 37.98 C78 45.44, 74.99 54.91, 70.32 61.07 C65.65 67.23, 57.17 72.43, 49.9 74.93 C42.63 77.43, 33.96 78.47, 26.72 76.07 C19.48 73.68, 11.06 66.7, 6.45 60.55 C1.85 54.41, -1.06 46.66, -0.91 39.22 C-0.76 31.79, 2.56 22.22, 7.35 15.95 C12.14 9.68, 19.94 3.55, 27.82 1.58 C35.7 -0.38, 49.84 3.57, 54.63 4.18 C59.42 4.79, 56.98 4.67, 56.57 5.26 M42.83 0.96 C50.06 0.74, 57.35 4.14, 63.2 8.89 C69.04 13.63, 76.19 21.78, 77.9 29.43 C79.6 37.09, 76.57 47.89, 73.45 54.81 C70.32 61.73, 65.44 67.11, 59.16 70.95 C52.88 74.8, 43.21 78.27, 35.79 77.89 C28.36 77.51, 20.41 73.81, 14.64 68.67 C8.87 63.53, 2.92 54.58, 1.16 47.04 C-0.61 39.5, 1.34 30.46, 4.06 23.42 C6.79 16.37, 11.06 8.6, 17.49 4.76 C23.92 0.93, 38.43 1.06, 42.66 0.4 C46.89 -0.26, 43.09 -0.02, 42.87 0.81" stroke="#000000" stroke-width="1" fill="none"></path></g><g transform="translate(316.194112055452 535.324405555876) rotate(0 8.203125 16.80000000000001)"><text x="8.203125" y="0" font-family="Cascadia, Segoe UI Emoji" font-size="28px" fill="#000000" text-anchor="middle" style="white-space: pre;" direction="ltr" dominant-baseline="text-before-edge">R</text></g><g stroke-linecap="round" transform="translate(415.5476248264313 499.5247933268547) rotate(0 38.75 38.75)"><path d="M47.94 1.43 C55.22 2.61, 63.45 8.14, 68.24 13.91 C73.03 19.69, 76.05 28.51, 76.7 36.09 C77.35 43.67, 75.91 52.94, 72.14 59.37 C68.38 65.81, 61.1 71.73, 54.11 74.72 C47.13 77.71, 37.79 79.25, 30.22 77.3 C22.65 75.35, 13.88 68.9, 8.71 63.04 C3.54 57.18, -0.17 49.72, -0.8 42.15 C-1.42 34.57, 0.87 24.09, 4.95 17.59 C9.03 11.08, 15.99 5.85, 23.68 3.11 C31.38 0.36, 45.93 1.11, 51.13 1.12 C56.32 1.14, 55.09 2.41, 54.83 3.19 M29.58 2.14 C36.06 -0.14, 44.65 -0.34, 51.73 2.42 C58.82 5.18, 67.81 12.51, 72.07 18.68 C76.33 24.85, 77.77 31.87, 77.27 39.43 C76.78 46.98, 73.77 58.11, 69.09 64.02 C64.4 69.93, 56.62 73.21, 49.15 74.89 C41.68 76.56, 31.56 76.55, 24.26 74.09 C16.95 71.64, 9.14 66.31, 5.33 60.16 C1.51 54.01, 0.65 44.79, 1.37 37.21 C2.09 29.63, 5.36 20.67, 9.66 14.67 C13.96 8.68, 24.27 3.14, 27.17 1.22 C30.07 -0.7, 26.61 2.4, 27.05 3.14" stroke="#000000" stroke-width="1" fill="none"></path></g><g transform="translate(446.194112055452 521.574405555876) rotate(0 8.203125 16.80000000000001)"><text x="8.203125" y="0" font-family="Cascadia, Segoe UI Emoji" font-size="28px" fill="#000000" text-anchor="middle" style="white-space: pre;" direction="ltr" dominant-baseline="text-before-edge">R</text></g><g stroke-linecap="round" transform="translate(164.29762482643127 189.5247933268547) rotate(0 38.75 38.75)"><path d="M31.98 -0.18 C39.26 -2.1, 49.84 0.22, 56.66 3.58 C63.48 6.94, 69.41 13.28, 72.89 19.98 C76.37 26.68, 78.78 36.14, 77.56 43.8 C76.33 51.45, 71.04 60.38, 65.56 65.93 C60.08 71.48, 52.05 75.73, 44.66 77.1 C37.26 78.47, 27.76 77.68, 21.2 74.15 C14.63 70.62, 8.71 62.62, 5.29 55.92 C1.86 49.21, -0.21 41.21, 0.63 33.9 C1.47 26.6, 4.12 17.71, 10.32 12.07 C16.52 6.42, 32.18 1.71, 37.81 0.05 C43.44 -1.61, 43.96 1.36, 44.11 2.1 M29.15 1.96 C36.05 -0.67, 45.31 -0.44, 52.25 1.99 C59.2 4.41, 66.72 9.99, 70.83 16.53 C74.93 23.07, 77.31 33.51, 76.88 41.23 C76.46 48.95, 72.76 56.96, 68.31 62.84 C63.85 68.72, 57.15 74.56, 50.16 76.51 C43.17 78.45, 33.71 76.9, 26.36 74.5 C19.02 72.1, 10.64 68.37, 6.11 62.1 C1.59 55.83, -1.04 44.64, -0.78 36.89 C-0.51 29.14, 3.14 21.56, 7.69 15.6 C12.25 9.64, 23.23 3.35, 26.55 1.12 C29.87 -1.12, 27.2 1.54, 27.62 2.21" stroke="#000000" stroke-width="1" fill="none"></path></g><g transform="translate(194.94411205545293 211.57440555587596) rotate(0 8.203125 16.80000000000001)"><text x="8.203125" y="0" font-family="Cascadia, Segoe UI Emoji" font-size="28px" fill="#000000" text-anchor="middle" style="white-space: pre;" direction="ltr" dominant-baseline="text-before-edge">T</text></g><g stroke-linecap="round" transform="translate(453.0476248264313 225.7747933268547) rotate(0 38.75 38.75)"><path d="M44.71 0.11 C52.01 0.64, 62.11 5.65, 67.42 11.1 C72.73 16.56, 75.59 25.38, 76.59 32.83 C77.59 40.29, 76.92 49.11, 73.44 55.83 C69.96 62.55, 62.56 69.63, 55.69 73.16 C48.82 76.7, 39.68 78.31, 32.23 77.04 C24.77 75.77, 16.23 71, 10.94 65.53 C5.65 60.07, 1.72 51.69, 0.49 44.27 C-0.74 36.86, -0.12 27.77, 3.55 21.05 C7.22 14.32, 15.03 7.28, 22.48 3.92 C29.94 0.56, 43.26 0.88, 48.27 0.89 C53.28 0.9, 52.49 3.33, 52.54 3.99 M22.9 2.39 C29 -1.4, 36.96 -1.14, 44.44 0.21 C51.91 1.56, 62.44 5.14, 67.76 10.49 C73.07 15.84, 75.65 24.64, 76.33 32.33 C77 40.01, 75.13 49.9, 71.8 56.59 C68.47 63.28, 62.92 69.26, 56.35 72.47 C49.79 75.68, 39.98 76.91, 32.4 75.85 C24.83 74.8, 16.44 71.67, 10.91 66.14 C5.39 60.6, 0.08 50.11, -0.74 42.66 C-1.57 35.21, 2.25 27.89, 5.97 21.46 C9.69 15.02, 18.96 6.73, 21.56 4.04 C24.16 1.35, 21.46 4.7, 21.55 5.32" stroke="#000000" stroke-width="1" fill="none"></path></g><g transform="translate(483.69411205545293 247.82440555587596) rotate(0 8.203125 16.80000000000001)"><text x="8.203125" y="0" font-family="Cascadia, Segoe UI Emoji" font-size="28px" fill="#000000" text-anchor="middle" style="white-space: pre;" direction="ltr" dominant-baseline="text-before-edge">T</text></g><g stroke-linecap="round" transform="translate(495.5476248264313 345.7747933268547) rotate(0 38.75 38.75)"><path d="M20.74 4.8 C26.79 1.14, 36.66 -0.53, 44.23 0.43 C51.81 1.39, 60.7 5.33, 66.2 10.58 C71.7 15.83, 76.14 24.26, 77.21 31.95 C78.29 39.63, 76.26 49.9, 72.63 56.71 C68.99 63.52, 62.2 69.32, 55.42 72.82 C48.64 76.33, 39.39 78.86, 31.94 77.72 C24.5 76.58, 15.84 71.58, 10.75 65.97 C5.66 60.36, 2.42 51.39, 1.39 44.07 C0.37 36.76, 0.5 29.01, 4.62 22.09 C8.74 15.18, 21.58 5.91, 26.13 2.58 C30.67 -0.74, 31.82 1.7, 31.9 2.12 M53.13 3.99 C59.78 6.36, 67.44 12.88, 71.28 18.86 C75.13 24.84, 76.59 32.37, 76.21 39.89 C75.82 47.41, 73.41 58.14, 68.98 63.97 C64.56 69.81, 57.19 73.23, 49.63 74.89 C42.07 76.54, 31.01 76.45, 23.62 73.91 C16.22 71.36, 9.02 65.76, 5.26 59.63 C1.5 53.51, 0.22 44.63, 1.06 37.16 C1.9 29.68, 5.64 20.8, 10.32 14.78 C15 8.75, 22.19 2.93, 29.14 1.01 C36.09 -0.9, 48.23 2.97, 52.03 3.29 C55.84 3.61, 51.97 2.26, 51.97 2.92" stroke="#000000" stroke-width="1" fill="none"></path></g><g transform="translate(526.1941120554529 367.82440555587596) rotate(0 8.203125 16.80000000000001)"><text x="8.203125" y="0" font-family="Cascadia, Segoe UI Emoji" font-size="28px" fill="#000000" text-anchor="middle" style="white-space: pre;" direction="ltr" dominant-baseline="text-before-edge">T</text></g><g stroke-linecap="round" transform="translate(91.79762482643127 389.5247933268547) rotate(0 38.75 38.75)"><path d="M51.77 2.07 C58.73 4.06, 66.21 11.68, 70.63 17.86 C75.04 24.05, 78.32 31.8, 78.26 39.16 C78.21 46.51, 75.13 55.77, 70.32 62 C65.5 68.23, 56.91 74.29, 49.4 76.53 C41.88 78.77, 32.46 78.16, 25.23 75.43 C18 72.7, 10.18 66.39, 6.02 60.16 C1.85 53.93, -0.12 45.68, 0.25 38.06 C0.61 30.44, 3.53 20.37, 8.2 14.42 C12.87 8.48, 20.13 4.15, 28.25 2.39 C36.37 0.62, 51.71 3.03, 56.92 3.85 C62.14 4.67, 59.75 6.77, 59.53 7.3 M53.52 4.32 C60.42 6.67, 69.14 11.39, 73.19 17.74 C77.23 24.09, 78.55 34.86, 77.81 42.42 C77.07 49.99, 73.89 57.47, 68.75 63.13 C63.61 68.79, 54.68 74.72, 46.96 76.39 C39.25 78.06, 29.34 76.3, 22.46 73.16 C15.58 70.02, 9.46 63.91, 5.69 57.55 C1.92 51.19, -0.96 42.11, -0.15 35.01 C0.67 27.92, 5.74 20.5, 10.6 14.97 C15.47 9.44, 21.74 3.87, 29.04 1.83 C36.33 -0.21, 50.33 2.66, 54.35 2.72 C58.37 2.78, 53.62 1.6, 53.15 2.22" stroke="#000000" stroke-width="1" fill="none"></path></g><g transform="translate(122.44411205545293 411.57440555587607) rotate(0 8.203125 16.80000000000001)"><text x="8.203125" y="0" font-family="Cascadia, Segoe UI Emoji" font-size="28px" fill="#000000" text-anchor="middle" style="white-space: pre;" direction="ltr" dominant-baseline="text-before-edge">C</text></g><g mask="url(#mask-fbIipIsUoJ6-JlnQSfgir)" stroke-linecap="round"><g transform="translate(210.54645523326235 273.27498824342797) rotate(0 42.74954550196253 55.21855539365629)"><path d="M1.89 -0.98 C19.32 24.3, 38.2 46.59, 84.83 110.83 M-0.98 -0.17 C15.72 23.17, 34.37 44.09, 86.48 111.41" stroke="#000000" stroke-width="1" fill="none"></path></g><g transform="translate(210.54645523326235 273.27498824342797) rotate(0 42.74954550196253 55.21855539365629)"><path d="M62.9 94.58 C67.14 99.68, 72.81 101.23, 85.33 111.37 M60.03 95.39 C65.49 99.64, 71.99 101.51, 86.99 111.95" stroke="#000000" stroke-width="1" fill="none"></path></g><g transform="translate(210.54645523326235 273.27498824342797) rotate(0 42.74954550196253 55.21855539365629)"><path d="M79.05 81.92 C79.76 89.93, 81.91 94.25, 85.33 111.37 M76.18 82.72 C78.28 89.52, 81.54 93.92, 86.99 111.95" stroke="#000000" stroke-width="1" fill="none"></path></g></g><mask id="mask-fbIipIsUoJ6-JlnQSfgir"><rect x="0" y="0" fill="#fff" width="396.528354516061" height="484.15276897804443"></rect><rect x="245.33427987466166" y="311.9138786107362" fill="#000" width="16.40625" height="33.6" opacity="1"></rect></mask><g transform="translate(245.33427987466166 311.9138786107362) rotate(0 7.961720860563219 16.579665026348096)"><text x="8.203125" y="0" font-family="Cascadia, Segoe UI Emoji" font-size="28px" fill="#000000" text-anchor="middle" style="white-space: pre;" direction="ltr" dominant-baseline="text-before-edge">d</text></g><g mask="url(#mask-3KNIt1QMviDzpSsRCV-ez)" stroke-linecap="round"><g transform="translate(462.18331291182767 301.3460511791411) rotate(0 -53.924590278771575 48.49719682328049)"><path d="M-0.99 -0.1 C-22.85 20.09, -45.83 38.96, -108.29 95.75 M0.44 0.93 C-29.05 25.9, -56.85 52.24, -107.96 97.09" stroke="#000000" stroke-width="1" fill="none"></path></g><g transform="translate(462.18331291182767 301.3460511791411) rotate(0 -53.924590278771575 48.49719682328049)"><path d="M-94.68 70.61 C-95.87 76.16, -98.85 80.08, -107.91 96.16 M-93.24 71.64 C-97.88 78.02, -100.63 85.65, -107.58 97.5" stroke="#000000" stroke-width="1" fill="none"></path></g><g transform="translate(462.18331291182767 301.3460511791411) rotate(0 -53.924590278771575 48.49719682328049)"><path d="M-81.06 85.96 C-85 88.21, -90.88 88.86, -107.91 96.16 M-79.62 86.99 C-87.92 89.26, -94.31 92.81, -107.58 97.5" stroke="#000000" stroke-width="1" fill="none"></path></g></g><mask id="mask-3KNIt1QMviDzpSsRCV-ez"><rect x="0" y="0" fill="#fff" width="670.5272831656694" height="498.0328100762523"></rect><rect x="399.8082027849068" y="332.8894306276967" fill="#000" width="16.40625" height="33.6" opacity="1"></rect></mask><g transform="translate(399.8082027849068 332.8894306276967) rotate(0 8.45051984814927 16.953817374724906)"><text x="8.203125" y="0" font-family="Cascadia, Segoe UI Emoji" font-size="28px" fill="#000000" text-anchor="middle" style="white-space: pre;" direction="ltr" dominant-baseline="text-before-edge">d</text></g><g mask="url(#mask-krjwZgGL30ra-P1wJY5EB)" stroke-linecap="round"><g transform="translate(481.26405388550575 375.68933333578514) rotate(0 -59.712878714545695 20.736603204804453)"><path d="M-1.3 1.72 C-30.88 9.41, -62.04 21.22, -118.8 38.77 M-0.63 0.49 C-28.55 10.47, -56.08 19.48, -118.42 40.99" stroke="#000000" stroke-width="1" fill="none"></path></g><g transform="translate(481.26405388550575 375.68933333578514) rotate(0 -59.712878714545695 20.736603204804453)"><path d="M-96.38 23.86 C-100.52 26.12, -106.34 32.17, -119.75 39.54 M-95.71 22.62 C-101.37 26.86, -106.6 30.81, -119.37 41.76" stroke="#000000" stroke-width="1" fill="none"></path></g><g transform="translate(481.26405388550575 375.68933333578514) rotate(0 -59.712878714545695 20.736603204804453)"><path d="M-89.73 43.27 C-95.57 40.28, -103.18 41.11, -119.75 39.54 M-89.05 42.03 C-96.31 41.72, -103.12 41.07, -119.37 41.76" stroke="#000000" stroke-width="1" fill="none"></path></g></g><mask id="mask-krjwZgGL30ra-P1wJY5EB"><rect x="0" y="0" fill="#fff" width="698.7318041661301" height="515.9052420339472"></rect><rect x="414.32705374519355" y="378.99728768486625" fill="#000" width="16.40625" height="33.6" opacity="1"></rect></mask><g transform="translate(414.32705374519355 378.99728768486625) rotate(0 7.224121425766498 17.42864885572334)"><text x="8.203125" y="0" font-family="Cascadia, Segoe UI Emoji" font-size="28px" fill="#000000" text-anchor="middle" style="white-space: pre;" direction="ltr" dominant-baseline="text-before-edge">d</text></g><g mask="url(#mask-kDRu13ZJMSqCApV3e_Hac)" stroke-linecap="round"><g transform="translate(453.9234687649514 297.8543718214994) rotate(0 -138.4220282706359 53.57643984884206)"><path d="M-1.2 -1.41 C-96.67 35.74, -192.75 72.7, -277.22 108.27 M0.37 -0.67 C-102.01 38.32, -203.51 78.46, -277.06 108.56" stroke="#000000" stroke-width="1" fill="none"></path></g><g transform="translate(453.9234687649514 297.8543718214994) rotate(0 -138.4220282706359 53.57643984884206)"><path d="M-256.4 86.58 C-262.06 94.53, -269.3 100.38, -277.54 108.29 M-254.27 87.58 C-263.26 94.84, -270.78 102.47, -277.34 108.69" stroke="#000000" stroke-width="1" fill="none"></path></g><g transform="translate(453.9234687649514 297.8543718214994) rotate(0 -138.4220282706359 53.57643984884206)"><path d="M-248.71 105.6 C-256.89 106.87, -266.81 106.09, -277.54 108.29 M-246.58 106.61 C-258.46 106.82, -268.81 107.44, -277.34 108.69" stroke="#000000" stroke-width="1" fill="none"></path></g></g><mask id="mask-kDRu13ZJMSqCApV3e_Hac"><rect x="0" y="0" fill="#fff" width="830.7857241434131" height="506.32488263761536"></rect><rect x="307.28921607572056" y="335.28962722955737" fill="#000" width="16.40625" height="33.6" opacity="1"></rect></mask><g transform="translate(307.28921607572056 335.2896272295573) rotate(0 8.212224418594928 16.141184440784087)"><text x="8.203125" y="0" font-family="Cascadia, Segoe UI Emoji" font-size="28px" fill="#000000" text-anchor="middle" style="white-space: pre;" direction="ltr" dominant-baseline="text-before-edge">d</text></g><g mask="url(#mask-cn5DRTVDHPcJOErIcigbG)" stroke-linecap="round"><g transform="translate(182.35223316775046 439.34423570678234) rotate(0 114.31357077953464 41.00630950147945)"><path d="M-0.23 1.33 C81.75 30.05, 160.35 57.67, 227.75 81.36 M0.13 0.5 C82.11 27.76, 165.84 58.56, 228.85 81.51" stroke="#000000" stroke-width="1" fill="none"></path></g><g transform="translate(182.35223316775046 439.34423570678234) rotate(0 114.31357077953464 41.00630950147945)"><path d="M198.58 83.11 C210.17 82.54, 218.24 81.08, 228.2 81.28 M199.01 82.11 C208.81 80.44, 220.51 81.78, 229.53 81.46" stroke="#000000" stroke-width="1" fill="none"></path></g><g transform="translate(182.35223316775046 439.34423570678234) rotate(0 114.31357077953464 41.00630950147945)"><path d="M205.6 63.82 C214.84 70.06, 220.42 75.42, 228.2 81.28 M206.03 62.83 C213.23 68.21, 222.38 76.58, 229.53 81.46" stroke="#000000" stroke-width="1" fill="none"></path></g></g><mask id="mask-cn5DRTVDHPcJOErIcigbG"><rect x="0" y="0" fill="#fff" width="510.6413936863437" height="620.898200374171"></rect><rect x="288.2936884270471" y="463.32121804047677" fill="#000" width="16.40625" height="33.6" opacity="1"></rect></mask><g transform="translate(288.2936884270471 463.32121804047665) rotate(0 8.372115520238026 17.02932716778514)"><text x="8.203125" y="0" font-family="Cascadia, Segoe UI Emoji" font-size="28px" fill="#000000" text-anchor="middle" style="white-space: pre;" direction="ltr" dominant-baseline="text-before-edge">k</text></g><g mask="url(#mask-k5ivKr_KWLlvZSCLzry-A)" stroke-linecap="round"><g transform="translate(170.05316935921564 453.6827045193975) rotate(0 58.24539309300326 33.561525283352694)"><path d="M1.01 1.5 C37.46 24.06, 76.87 43.66, 117.43 66.39 M-0.94 -0.89 C39.63 23.74, 78.63 46.21, 116.64 68.01" stroke="#000000" stroke-width="1" fill="none"></path></g><g transform="translate(170.05316935921564 453.6827045193975) rotate(0 58.24539309300326 33.561525283352694)"><path d="M88.1 64.35 C96.04 66.42, 107.53 65.56, 118.35 66.08 M86.15 61.96 C97.8 65.2, 107.43 66.15, 117.55 67.7" stroke="#000000" stroke-width="1" fill="none"></path></g><g transform="translate(170.05316935921564 453.6827045193975) rotate(0 58.24539309300326 33.561525283352694)"><path d="M98.33 46.56 C103.12 54.39, 111.29 59.3, 118.35 66.08 M96.38 44.17 C104.42 53.49, 110.56 60.5, 117.55 67.7" stroke="#000000" stroke-width="1" fill="none"></path></g></g><mask id="mask-k5ivKr_KWLlvZSCLzry-A"><rect x="0" y="0" fill="#fff" width="385.7741521934995" height="622.0049463453231"></rect><rect x="219.71053577635757" y="471.04382543236034" fill="#000" width="16.40625" height="33.6" opacity="1"></rect></mask><g transform="translate(219.71053577635757 471.04382543236034) rotate(0 8.588026675861329 16.200404370389833)"><text x="8.203125" y="0" font-family="Cascadia, Segoe UI Emoji" font-size="28px" fill="#000000" text-anchor="middle" style="white-space: pre;" direction="ltr" dominant-baseline="text-before-edge">k</text></g><g stroke-linecap="round" transform="translate(33.047624826431274 92.0247933268547) rotate(0 286.25 259.375)"><path d="M0.36 0.33 C222.07 1.73, 446.13 1.91, 572.07 -0.26 M0.14 -0.2 C162.46 -1.09, 324.1 -0.37, 572.49 -0.27 M573.22 -0.04 C571.7 113.5, 572.23 227.7, 572.68 518.29 M572.84 -0.21 C573.3 112.72, 572.64 225.33, 572.55 519.09 M572.44 519.25 C436.06 520, 298.3 520.29, 0.36 518.37 M572.73 518.81 C376.66 518.1, 181.74 518.68, 0.1 518.54 M-0.68 517.95 C-0.57 376.89, -1.78 234.31, 0.36 -0.22 M0.07 518.59 C1.76 391.04, 2.01 263.86, 0.2 -0.34" stroke="#000000" stroke-width="1" fill="none"></path></g><g transform="translate(49.297624826431274 100.7747933268547) rotate(0 123.046875 16.80000000000001)"><text x="0" y="0" font-family="Cascadia, Segoe UI Emoji" font-size="28px" fill="#000000" text-anchor="start" style="white-space: pre;" direction="ltr" dominant-baseline="text-before-edge">Minimal Example</text></g><g stroke-linecap="round" transform="translate(740.5476248264313 289.5247933268547) rotate(0 25.625 25.625)"><path d="M30.52 0.6 C35.76 1.2, 41.55 4.6, 44.9 8.8 C48.25 12.99, 50.51 20.19, 50.62 25.79 C50.73 31.4, 48.88 38.38, 45.56 42.4 C42.24 46.42, 36.12 49.14, 30.71 49.9 C25.29 50.66, 17.93 49.64, 13.08 46.97 C8.23 44.31, 3.52 38.86, 1.62 33.9 C-0.28 28.94, -0.34 22.35, 1.65 17.2 C3.65 12.05, 8.43 5.64, 13.61 2.99 C18.78 0.33, 28.87 1.27, 32.7 1.27 C36.52 1.27, 36.56 2.61, 36.54 2.97 M14.1 2.41 C18.41 -0.47, 26.05 -0.28, 31.26 1.01 C36.47 2.29, 42.03 5.67, 45.37 10.12 C48.7 14.58, 51.5 22.48, 51.28 27.74 C51.06 33.01, 47.67 37.71, 44.04 41.71 C40.41 45.7, 34.7 50.72, 29.49 51.72 C24.27 52.71, 17.45 50.82, 12.75 47.69 C8.05 44.56, 2.9 38.18, 1.29 32.92 C-0.33 27.66, 1.18 21.15, 3.05 16.12 C4.93 11.08, 10.76 4.6, 12.55 2.71 C14.33 0.82, 13.58 4.51, 13.76 4.78" stroke="#000000" stroke-width="1" fill="none"></path></g><g transform="translate(760.1936385585259 303.03018205894944) rotate(0 5.859375 12)"><text x="5.859375" y="0" font-family="Cascadia, Segoe UI Emoji" font-size="20px" fill="#000000" text-anchor="middle" style="white-space: pre;" direction="ltr" dominant-baseline="text-before-edge">R</text></g><g stroke-linecap="round" transform="translate(619.8397368192673 278.2747933268547) rotate(0 128.125 62.92727272727274)"><path d="M-0.61 0.42 C63.66 -1.35, 127.95 -3.59, 257.3 0.84 M0.69 0.58 C92.3 -1.06, 185.23 0.45, 256.93 0.58 M257.39 0.1 C257.3 26.31, 257.27 56.7, 257.53 127.22 M256.39 -0.62 C254.53 29.28, 254.71 59.17, 256.98 125.92 M256.73 126.83 C190.98 126.27, 124.52 125.1, 0.63 126.48 M257.01 126.16 C201.14 124.83, 146.71 125, -0.06 126.31 M0.2 125.05 C-2.03 79.81, 1.35 32.24, -0.88 -0.34 M-0.47 125.98 C-1.32 87.25, -1.23 49.96, 0.4 0.8" stroke="#000000" stroke-width="1" fill="none"></path></g><g transform="translate(631.0897368192673 296.82479332685466) rotate(0 46.875 12)"><text x="0" y="0" font-family="Cascadia, Segoe UI Emoji" font-size="20px" fill="#000000" text-anchor="start" style="white-space: pre;" direction="ltr" dominant-baseline="text-before-edge">Resource</text></g><g transform="translate(634.8397368192673 325.6747933268547) rotate(0 103.125 38.39999999999998)"><text x="0" y="0" font-family="Cascadia, Segoe UI Emoji" font-size="16px" fill="#000000" text-anchor="start" style="white-space: pre;" direction="ltr" dominant-baseline="text-before-edge">- id &lt;uuid&gt;</text><text x="0" y="19.2" font-family="Cascadia, Segoe UI Emoji" font-size="16px" fill="#000000" text-anchor="start" style="white-space: pre;" direction="ltr" dominant-baseline="text-before-edge">- createdAt &lt;datetime&gt;</text><text x="0" y="38.4" font-family="Cascadia, Segoe UI Emoji" font-size="16px" fill="#000000" text-anchor="start" style="white-space: pre;" direction="ltr" dominant-baseline="text-before-edge">- type &lt;mimetype&gt;</text><text x="0" y="57.599999999999994" font-family="Cascadia, Segoe UI Emoji" font-size="16px" fill="#000000" text-anchor="start" style="white-space: pre;" direction="ltr" dominant-baseline="text-before-edge"></text></g><g stroke-linecap="round" transform="translate(1036.7976248264313 283.2747933268547) rotate(0 25.625 25.625)"><path d="M29.28 0.55 C34.65 1.14, 41.14 5.19, 44.78 9.31 C48.43 13.42, 51.13 19.87, 51.15 25.26 C51.16 30.65, 48.37 37.28, 44.87 41.63 C41.38 45.98, 35.33 50.29, 30.2 51.34 C25.07 52.4, 18.75 50.51, 14.11 47.94 C9.46 45.37, 4.39 41, 2.33 35.92 C0.26 30.84, -0.06 22.8, 1.71 17.46 C3.47 12.12, 8.24 6.58, 12.91 3.89 C17.59 1.2, 26.69 1.71, 29.75 1.32 C32.82 0.94, 31.15 1.26, 31.31 1.59 M36.62 3.98 C41.42 5.76, 48.63 10.39, 50.84 15.22 C53.06 20.06, 51.94 27.55, 49.9 32.97 C47.87 38.4, 43.28 44.57, 38.63 47.75 C33.98 50.94, 27.4 52.73, 22.01 52.07 C16.63 51.41, 9.95 48.17, 6.3 43.78 C2.65 39.38, 0.25 31.3, 0.14 25.72 C0.02 20.13, 2.51 14.61, 5.61 10.25 C8.71 5.89, 13.5 0.72, 18.74 -0.45 C23.97 -1.62, 33.86 2.39, 37.01 3.24 C40.15 4.1, 37.61 4.35, 37.61 4.68" stroke="#000000" stroke-width="1" fill="none"></path></g><g transform="translate(1056.443638558526 296.78018205894944) rotate(0 5.859375 12)"><text x="5.859375" y="0" font-family="Cascadia, Segoe UI Emoji" font-size="20px" fill="#000000" text-anchor="middle" style="white-space: pre;" direction="ltr" dominant-baseline="text-before-edge">C</text></g><g stroke-linecap="round" transform="translate(888.1149581074715 277.7995952963829) rotate(0 125 48.75)"><path d="M0.01 -0.6 C66.44 -0.24, 132.16 -1.89, 250.05 -1.15 M-0.13 0.36 C58.08 -1.93, 115.83 -1.39, 250.22 -0.28 M248.55 -0.2 C252.28 18.4, 250.78 41.66, 248.73 98.84 M250.5 -0.93 C249.67 29.03, 248.79 58.47, 250.21 96.97 M248.72 95.98 C155.95 97.67, 59.37 97.84, -0.38 97.14 M250.47 98.1 C162.75 97.93, 73.38 98.12, -0.65 98.1 M1.3 98.81 C-1.71 73.39, -1.06 45.15, -0.02 0.13 M0.93 96.74 C-1.62 58.03, -1.49 20.75, 0.35 0.36" stroke="#000000" stroke-width="1" fill="none"></path></g><g transform="translate(901.8649581074715 290.2995952963829) rotate(0 58.59375 12)"><text x="0" y="0" font-family="Cascadia, Segoe UI Emoji" font-size="20px" fill="#000000" text-anchor="start" style="white-space: pre;" direction="ltr" dominant-baseline="text-before-edge">Collection</text></g><g transform="translate(899.3649581074715 321.4495952963829) rotate(0 103.125 19.19999999999999)"><text x="0" y="0" font-family="Cascadia, Segoe UI Emoji" font-size="16px" fill="#000000" text-anchor="start" style="white-space: pre;" direction="ltr" dominant-baseline="text-before-edge">- id &lt;uuid&gt;</text><text x="0" y="19.2" font-family="Cascadia, Segoe UI Emoji" font-size="16px" fill="#000000" text-anchor="start" style="white-space: pre;" direction="ltr" dominant-baseline="text-before-edge">- createdAt &lt;datetime&gt;</text></g><g stroke-linecap="round" transform="translate(1236.7976248264313 287.0247933268547) rotate(0 25.625 25.625)"><path d="M37.22 3.21 C42.19 5.44, 47.85 11.07, 49.88 16.06 C51.91 21.04, 50.96 28.09, 49.4 33.11 C47.84 38.13, 45.05 43.1, 40.51 46.18 C35.97 49.26, 27.67 52.05, 22.17 51.59 C16.68 51.13, 11.32 47.41, 7.55 43.43 C3.78 39.44, -0.14 33.13, -0.44 27.67 C-0.74 22.2, 2.34 15.13, 5.75 10.64 C9.16 6.15, 14.41 1.9, 20.03 0.72 C25.64 -0.45, 36.04 2.9, 39.42 3.6 C42.8 4.3, 40.7 4.66, 40.31 4.92 M17.45 1.01 C22.35 -1.16, 28.87 -1.18, 33.92 0.73 C38.97 2.64, 45.06 7.67, 47.75 12.46 C50.44 17.24, 50.96 24.06, 50.04 29.42 C49.13 34.78, 46.13 40.86, 42.24 44.62 C38.36 48.39, 32.38 51.82, 26.74 52.01 C21.09 52.21, 12.54 49.25, 8.36 45.79 C4.18 42.33, 2.45 36.63, 1.65 31.23 C0.85 25.83, 0.96 18.55, 3.55 13.4 C6.14 8.24, 14.87 2.2, 17.2 0.3 C19.53 -1.61, 17.35 1.43, 17.53 1.96" stroke="#000000" stroke-width="1" fill="none"></path></g><g transform="translate(1256.443638558526 300.53018205894944) rotate(0 5.859375 12)"><text x="5.859375" y="0" font-family="Cascadia, Segoe UI Emoji" font-size="20px" fill="#000000" text-anchor="middle" style="white-space: pre;" direction="ltr" dominant-baseline="text-before-edge">T</text></g><g stroke-linecap="round" transform="translate(1150.6149581074715 280.2995952963829) rotate(0 97.5 50)"><path d="M-1.06 1.87 C49.6 0.51, 96.94 0.9, 195.81 1.18 M-0.6 -0.41 C42.24 0.87, 83.39 1.37, 194.95 -0.83 M193.77 -1.7 C195.8 20.59, 197.23 42.55, 193.64 100.28 M195.06 -0.83 C194.56 35.16, 194.85 69.39, 194.66 100.85 M195.22 101.71 C155.09 98.79, 116.18 99.83, -0.32 100.87 M195.48 100.84 C141.26 101.11, 85.59 101.09, 0.29 99.67 M0.14 100.5 C0.8 76.3, 1.34 50.72, -1.1 0.96 M0.31 100.26 C-0.59 66.35, -0.71 31.55, 0.63 -0.45" stroke="#000000" stroke-width="1" fill="none"></path></g><g transform="translate(1164.3649581074715 295.3995952963829) rotate(0 17.578125 12)"><text x="0" y="0" font-family="Cascadia, Segoe UI Emoji" font-size="20px" fill="#000000" text-anchor="start" style="white-space: pre;" direction="ltr" dominant-baseline="text-before-edge">Tag</text></g><g transform="translate(1161.8649581074715 341.4495952963829) rotate(0 70.3125 9.599999999999994)"><text x="0" y="0" font-family="Cascadia, Segoe UI Emoji" font-size="16px" fill="#000000" text-anchor="start" style="white-space: pre;" direction="ltr" dominant-baseline="text-before-edge">- name &lt;tagstr&gt;</text></g><g stroke-linecap="round" transform="translate(623.1196984648705 430.95038652420044) rotate(0 152.5 48.125)"><path d="M-0.51 1.36 C98.18 -0.7, 196.58 -0.24, 304.54 0.24 M0.04 -0.59 C116.22 0.78, 232.52 0.62, 305.47 -0.1 M304.78 -0.73 C303.27 33.67, 303.16 64.11, 304.59 94.39 M304.01 0.66 C305.49 20.64, 306.04 40.11, 305.61 97.24 M306.32 96.55 C230.5 95.17, 156.5 96.65, -0.62 96.99 M304.61 95.81 C227.74 94.93, 149.6 96.13, -0.26 96.63 M-1.04 96.3 C-0.81 63.44, 2.87 29.18, -0.32 -0.69 M-0.8 95.62 C-0.37 70.35, 1.16 42.64, -0.34 -0.3" stroke="#000000" stroke-width="1" fill="none"></path></g><g transform="translate(635.6196984648705 443.55038652420046) rotate(0 46.875 12)"><text x="0" y="0" font-family="Cascadia, Segoe UI Emoji" font-size="20px" fill="#000000" text-anchor="start" style="white-space: pre;" direction="ltr" dominant-baseline="text-before-edge">contains</text></g><g mask="url(#mask-_Ptdt1l9LLrMAf_TbcOqK)" stroke-linecap="round"><g transform="translate(758.1196984648705 459.70038652420044) rotate(0 73.30290014203638 1.0785233858041465)"><path d="M1.26 1.96 C37.37 0.94, 71.91 0.75, 145.18 0.36 M0.55 0.64 C31.52 0.96, 64.17 2.02, 146.05 0.2" stroke="#000000" stroke-width="1" fill="none"></path></g><g transform="translate(758.1196984648705 459.70038652420044) rotate(0 73.30290014203638 1.0785233858041465)"><path d="M119.28 12.85 C126.05 8.16, 131.25 5.32, 144.98 0.56 M118.58 11.53 C123.56 8.45, 130.15 7.14, 145.86 0.39" stroke="#000000" stroke-width="1" fill="none"></path></g><g transform="translate(758.1196984648705 459.70038652420044) rotate(0 73.30290014203638 1.0785233858041465)"><path d="M118.96 -7.66 C125.81 -7.26, 131.09 -5.01, 144.98 0.56 M118.26 -8.99 C123.18 -7.54, 129.84 -4.33, 145.86 0.39" stroke="#000000" stroke-width="1" fill="none"></path></g></g><mask id="mask-_Ptdt1l9LLrMAf_TbcOqK"><rect x="0" y="0" fill="#fff" width="1004.3696984648705" height="559.7003865242004"></rect><rect x="825.3853234648705" y="447.70038652420044" fill="#000" width="11.71875" height="24" opacity="1"></rect></mask><g transform="translate(825.3853234648705 447.70038652420044) rotate(0 6.037275142036378 13.078523385804147)"><text x="5.859375" y="0" font-family="Cascadia, Segoe UI Emoji" font-size="20px" fill="#000000" text-anchor="middle" style="white-space: pre;" direction="ltr" dominant-baseline="text-before-edge">k</text></g><g transform="translate(636.8696984648705 482.10038652420053) rotate(0 70.3125 9.600000000000023)"><text x="0" y="0" font-family="Cascadia, Segoe UI Emoji" font-size="16px" fill="#000000" text-anchor="start" style="white-space: pre;" direction="ltr" dominant-baseline="text-before-edge">- number &lt;uint&gt;</text></g><g mask="url(#mask-5cL2QesgnKBiiDjzWziyo)" stroke-linecap="round"><g transform="translate(1100.6196984648705 464.70038652420044) rotate(0 72.67827655700967 0.12977598208743757)"><path d="M-1.11 -0.44 C55.25 -0.59, 112.54 0.74, 146.18 -0.49 M-0.26 0.85 C39.38 -1.38, 77.51 -0.79, 146.46 0.87" stroke="#000000" stroke-width="1" fill="none"></path></g><g transform="translate(1100.6196984648705 464.70038652420044) rotate(0 72.67827655700967 0.12977598208743757)"><path d="M116.95 10.09 C128.43 5.69, 140.8 3.34, 146.4 0.38 M117.8 11.38 C126.49 7.31, 133.67 5.37, 146.68 1.74" stroke="#000000" stroke-width="1" fill="none"></path></g><g transform="translate(1100.6196984648705 464.70038652420044) rotate(0 72.67827655700967 0.12977598208743757)"><path d="M117.39 -10.43 C128.58 -7.01, 140.78 -1.53, 146.4 0.38 M118.23 -9.14 C126.81 -7.81, 133.87 -4.37, 146.68 1.74" stroke="#000000" stroke-width="1" fill="none"></path></g></g><mask id="mask-5cL2QesgnKBiiDjzWziyo"><rect x="0" y="0" fill="#fff" width="1346.8696984648705" height="564.7003865242004"></rect><rect x="1167.8853234648705" y="452.70038652420044" fill="#000" width="11.71875" height="24" opacity="1"></rect></mask><g transform="translate(1167.8853234648705 452.70038652420044) rotate(0 5.412651557009667 12.129775982087438)"><text x="5.859375" y="0" font-family="Cascadia, Segoe UI Emoji" font-size="20px" fill="#000000" text-anchor="middle" style="white-space: pre;" direction="ltr" dominant-baseline="text-before-edge">d</text></g><g stroke-linecap="round" transform="translate(951.8696984648705 435.95038652420044) rotate(0 162.5 27.5)"><path d="M-0.95 0.54 C87.46 1.36, 177.74 2.12, 323.9 -0.86 M0.11 0.28 C112.59 1.71, 225.3 0.99, 325.12 -0.59 M324.28 -0.03 C325.93 21.43, 325.87 40.55, 324.34 53.01 M325.21 -0.93 C323.87 13.48, 325.56 26.06, 324.71 54.58 M324.2 54.07 C215.53 57.83, 108.25 58.28, 0.89 53.95 M324.62 54.85 C200.91 53.48, 77.53 53.94, -0.02 54.83 M-0.53 56.69 C1.95 39.54, 1.39 26.27, 0.43 1.74 M0.3 54.04 C-0.51 41.61, -0.32 28.84, -0.1 -0.99" stroke="#000000" stroke-width="1" fill="none"></path></g><g transform="translate(965.6196984648705 451.05038652420035) rotate(0 52.734375 12)"><text x="0" y="0" font-family="Cascadia, Segoe UI Emoji" font-size="20px" fill="#000000" text-anchor="start" style="white-space: pre;" direction="ltr" dominant-baseline="text-before-edge">describes</text></g></svg>