<svg version="1.1" xmlns="http://www.w3.org/2000/svg" viewBox="0 0 1301.4285714285716 907.1428571428577" width="1301.4285714285716" height="907.1428571428577">
  <!-- svg-source:excalidraw -->
  
  <defs>
    <style class="style-fonts">
      @font-face {
        font-family: "Virgil";
        src: url("https://excalidraw.com/Virgil.woff2");
      }
      @font-face {
        font-family: "Cascadia";
        src: url("https://excalidraw.com/Cascadia.woff2");
      }
    </style>
    
  </defs>
  <rect x="0" y="0" width="1301.4285714285716" height="907.1428571428577" fill="#ffffff"></rect><g stroke-linecap="round" transform="translate(50.36904761904782 87.79761904762006) rotate(0 119.99999999999994 121.57142857142856)"><path d="M-0.46 -0.57 C59.76 -3.11, 121.06 -1.27, 239.34 -1.26 M-0.06 0.51 C93.39 2.22, 187.62 1.44, 239.18 0.53 M239.48 0.98 C239.9 72.72, 240.07 145.37, 238.43 241.9 M239.31 0.43 C237.86 59.06, 238.87 117.38, 239.65 243.02 M238.86 242.31 C150.51 241.11, 57.77 240.17, 1.09 244.5 M239.77 243.01 C188.67 242.92, 136.7 242.38, 0.58 243.53 M0.48 242.69 C2.49 183.14, 2.05 123.4, -0.27 -0.7 M0.7 242.68 C-0.21 148.99, 0.06 54.09, 0.26 -0.54" stroke="#1e1e1e" stroke-width="1" fill="none"></path></g><g transform="translate(59.71428571428601 95.28571428571433) rotate(0 64.453125 12)"><text x="0" y="0" font-family="Cascadia, Segoe UI Emoji" font-size="20px" fill="#1e1e1e" text-anchor="start" style="white-space: pre;" direction="ltr" dominant-baseline="text-before-edge">Upload Page</text></g><g stroke-linecap="round" transform="translate(674.4285714285719 98.28571428571439) rotate(0 101.00000000000011 106.99999999999997)"><path d="M1.07 1.5 C80.01 -2.22, 158.53 -0.66, 201.47 0.74 M-0.55 0.01 C79.96 0.93, 159.46 0.61, 202.15 0.4 M202.41 -0.17 C201.97 82.49, 203.49 166.79, 200.38 215.75 M201.76 -0.76 C201.29 84.11, 200.02 168.29, 201.67 214.41 M201.29 214.13 C136.01 213.93, 68.94 217.05, 0.92 213.87 M202.27 214.24 C153 215.38, 102.81 215.24, 0.15 214.59 M-1.56 212.29 C0.58 138.95, 0.18 67.68, -0.96 0.14 M-0.43 214.63 C1.18 141.15, 0.91 66.66, -0.44 0.01" stroke="#1e1e1e" stroke-width="1" fill="none"></path></g><g transform="translate(684.4285714285719 112.28571428571433) rotate(0 52.734375 12)"><text x="0" y="0" font-family="Cascadia, Segoe UI Emoji" font-size="20px" fill="#1e1e1e" text-anchor="start" style="white-space: pre;" direction="ltr" dominant-baseline="text-before-edge">Edit Page</text></g><g transform="translate(347.32755652340495 131.85774141384388) rotate(0 140.625 9.599999999999994)"><text x="0" y="0" font-family="Cascadia, Segoe UI Emoji" font-size="16px" fill="#1e1e1e" text-anchor="start" style="white-space: pre;" direction="ltr" dominant-baseline="text-before-edge">Submission failed: input error</text></g><g transform="translate(310.15588912857754 184.74443833914205) rotate(0 173.4375 9.599999999999994)"><text x="0" y="0" font-family="Cascadia, Segoe UI Emoji" font-size="16px" fill="#1e1e1e" text-anchor="start" style="white-space: pre;" direction="ltr" dominant-baseline="text-before-edge">Send back with previous values filled</text></g><g stroke-linecap="round"><g transform="translate(290.2472464457484 160.57446401270374) rotate(0 190.91185145484587 1.044513637975939)"><path d="M0.25 0.14 C127.9 1.73, 259.13 0.93, 380.93 1.93 M0.48 0.38 C77.7 1.86, 155.36 2.27, 381.57 1.71" stroke="#1e1e1e" stroke-width="1" fill="none"></path></g><g transform="translate(290.2472464457484 160.57446401270374) rotate(0 190.91185145484587 1.044513637975939)"><path d="M353.82 12.24 C361.07 10.42, 374.32 4.47, 380.71 1.58 M354.2 12.64 C359.21 10.84, 364.98 8.76, 381.77 1.21" stroke="#1e1e1e" stroke-width="1" fill="none"></path></g><g transform="translate(290.2472464457484 160.57446401270374) rotate(0 190.91185145484587 1.044513637975939)"><path d="M353.79 -8.28 C361.02 -3.16, 374.28 -2.17, 380.71 1.58 M354.17 -7.88 C359.19 -5.51, 364.97 -3.41, 381.77 1.21" stroke="#1e1e1e" stroke-width="1" fill="none"></path></g></g><mask></mask><g stroke-linecap="round" transform="translate(347.5714285714288 478.4285714285712) rotate(0 128.5 104.50000000000006)"><path d="M-1.25 -0.21 C68.88 0.48, 136.51 0.71, 255.85 0.63 M-0.2 -0.67 C75.37 -1.16, 150.39 -1.97, 256.79 -0.52 M258.19 1.2 C259.62 50.92, 257.55 101.03, 256.9 208.68 M257.19 -0.72 C255.62 75.61, 255.9 151.08, 257.2 209.87 M255.93 208.49 C204.93 210.89, 152.63 210.47, -1.22 208.05 M257.05 208.61 C194.39 210.94, 132.43 210.4, -0.46 208.81 M-1.31 207.72 C-0.64 127.87, -1.21 43.06, -0.54 1.06 M0.51 208.83 C-0.04 163.49, 1.14 120.18, -0.81 0.1" stroke="#1e1e1e" stroke-width="1" fill="none"></path></g><g transform="translate(351.7142857142859 483.88571428571424) rotate(0 52.734375 12)"><text x="0" y="0" font-family="Cascadia, Segoe UI Emoji" font-size="20px" fill="#1e1e1e" text-anchor="start" style="white-space: pre;" direction="ltr" dominant-baseline="text-before-edge">View Page</text></g><g stroke-linecap="round"><g transform="translate(283.83509427032266 339.9639934234566) rotate(0 52.248540038643114 64.48597404334527)"><path d="M-1.96 1.76 C39.14 46.88, 75.81 89.55, 106.45 128.09 M0.42 0.88 C28.24 34.4, 54.65 67.98, 106.18 128.07" stroke="#1e1e1e" stroke-width="1" fill="none"></path></g><g transform="translate(283.83509427032266 339.9639934234566) rotate(0 52.248540038643114 64.48597404334527)"><path d="M78.18 114.93 C89.69 119.72, 97.7 122, 106.85 128.88 M80.56 114.06 C87.45 117.92, 92.93 121.99, 106.57 128.86" stroke="#1e1e1e" stroke-width="1" fill="none"></path></g><g transform="translate(283.83509427032266 339.9639934234566) rotate(0 52.248540038643114 64.48597404334527)"><path d="M93.85 101.68 C99.83 111.24, 102.22 118.28, 106.85 128.88 M96.22 100.81 C99 108.12, 100.36 115.66, 106.57 128.86" stroke="#1e1e1e" stroke-width="1" fill="none"></path></g></g><mask></mask><g transform="translate(285.14285714285734 382.82857142857154) rotate(49.43088495257365 84.375 9.600000000000023)"><text x="0" y="0" font-family="Cascadia, Segoe UI Emoji" font-size="16px" fill="#1e1e1e" text-anchor="start" style="white-space: pre;" direction="ltr" dominant-baseline="text-before-edge">Submission Success</text></g><g stroke-linecap="round"><g transform="translate(736.0001803874123 327.28571428571433) rotate(0 -89.79100383574621 70.38891008580808)"><path d="M-0.1 -1.59 C-57.7 45.06, -113.92 87.6, -179.27 142.36 M-0.13 0.09 C-50.28 41.23, -99.18 81.2, -179.48 142.31" stroke="#1e1e1e" stroke-width="1" fill="none"></path></g><g transform="translate(736.0001803874123 327.28571428571433) rotate(0 -89.79100383574621 70.38891008580808)"><path d="M-163.55 115.11 C-169.16 125.79, -173.99 131.14, -179.73 142.57 M-163.59 117.08 C-168.1 124.45, -171.51 132.01, -179.98 142.51" stroke="#1e1e1e" stroke-width="1" fill="none"></path></g><g transform="translate(736.0001803874123 327.28571428571433) rotate(0 -89.79100383574621 70.38891008580808)"><path d="M-151.01 131.35 C-160.46 136.88, -169.24 137.11, -179.73 142.57 M-151.05 133.32 C-159 136.3, -165.9 139.34, -179.98 142.51" stroke="#1e1e1e" stroke-width="1" fill="none"></path></g></g><mask></mask><g transform="translate(588.6250000000003 393.6857142857142) rotate(323.3565667064971 84.375 9.600000000000023)"><text x="0" y="0" font-family="Cascadia, Segoe UI Emoji" font-size="16px" fill="#1e1e1e" text-anchor="start" style="white-space: pre;" direction="ltr" dominant-baseline="text-before-edge">Submission Success</text></g><g stroke-linecap="round" transform="translate(850.357142857143 508.0714285714288) rotate(0 143.39285714285722 93.21428571428578)"><path d="M0.14 1.12 C108.62 2.43, 220.06 0.61, 287.25 1.21 M0.6 0 C101.61 1.55, 204.33 0.8, 287.05 -0.37 M287.76 0.31 C287.92 44.66, 290.22 86.06, 288.75 185.02 M285.85 0.99 C287.73 71.48, 288.25 141.67, 286.61 185.72 M285.73 184.92 C189.19 185.48, 92.59 188.2, -0.21 185.58 M287.04 187.04 C225.48 186.14, 163.14 185.35, -0.22 185.9 M0.72 186.7 C-0.16 140.39, -2.82 94.63, 0.16 -0.42 M0.43 186 C-1.84 141.44, -1.84 98.15, -0.05 -0.77" stroke="#1e1e1e" stroke-width="1" fill="none"></path></g><g transform="translate(856.4285714285717 516.7428571428572) rotate(0 58.59375 12)"><text x="0" y="0" font-family="Cascadia, Segoe UI Emoji" font-size="20px" fill="#1e1e1e" text-anchor="start" style="white-space: pre;" direction="ltr" dominant-baseline="text-before-edge">Query Page</text></g><g transform="translate(72.85714285714312 133.82857142857137) rotate(0 70.3125 28.799999999999983)"><text x="0" y="0" font-family="Cascadia, Segoe UI Emoji" font-size="16px" fill="#1e1e1e" text-anchor="start" style="white-space: pre;" direction="ltr" dominant-baseline="text-before-edge">- File select</text><text x="0" y="19.2" font-family="Cascadia, Segoe UI Emoji" font-size="16px" fill="#1e1e1e" text-anchor="start" style="white-space: pre;" direction="ltr" dominant-baseline="text-before-edge">- tag entry</text><text x="0" y="38.4" font-family="Cascadia, Segoe UI Emoji" font-size="16px" fill="#1e1e1e" text-anchor="start" style="white-space: pre;" direction="ltr" dominant-baseline="text-before-edge">- submit button</text></g><g transform="translate(854.2857142857143 541.4285714285714) rotate(0 107.8125 38.39999999999998)"><text x="0" y="0" font-family="Cascadia, Segoe UI Emoji" font-size="16px" fill="#1e1e1e" text-anchor="start" style="white-space: pre;" direction="ltr" dominant-baseline="text-before-edge">- Tag includes</text><text x="0" y="19.2" font-family="Cascadia, Segoe UI Emoji" font-size="16px" fill="#1e1e1e" text-anchor="start" style="white-space: pre;" direction="ltr" dominant-baseline="text-before-edge">- Tag excludes</text><text x="0" y="38.4" font-family="Cascadia, Segoe UI Emoji" font-size="16px" fill="#1e1e1e" text-anchor="start" style="white-space: pre;" direction="ltr" dominant-baseline="text-before-edge">- Include/Exclude modes</text><text x="0" y="57.599999999999994" font-family="Cascadia, Segoe UI Emoji" font-size="16px" fill="#1e1e1e" text-anchor="start" style="white-space: pre;" direction="ltr" dominant-baseline="text-before-edge">- view (submit button)</text></g><g transform="translate(352.8571428571431 514.2857142857141) rotate(0 46.875 28.80000000000001)"><text x="0" y="0" font-family="Cascadia, Segoe UI Emoji" font-size="16px" fill="#1e1e1e" text-anchor="start" style="white-space: pre;" direction="ltr" dominant-baseline="text-before-edge">- next</text><text x="0" y="19.2" font-family="Cascadia, Segoe UI Emoji" font-size="16px" fill="#1e1e1e" text-anchor="start" style="white-space: pre;" direction="ltr" dominant-baseline="text-before-edge">- previous</text><text x="0" y="38.4" font-family="Cascadia, Segoe UI Emoji" font-size="16px" fill="#1e1e1e" text-anchor="start" style="white-space: pre;" direction="ltr" dominant-baseline="text-before-edge"></text></g><g transform="translate(360.0000000000002 584.2857142857141) rotate(0 103.12499999999994 28.80000000000001)"><text x="0" y="0" font-family="Cascadia, Segoe UI Emoji" font-size="16px" fill="#1e1e1e" text-anchor="start" style="white-space: pre;" direction="ltr" dominant-baseline="text-before-edge">content should take up</text><text x="0" y="19.2" font-family="Cascadia, Segoe UI Emoji" font-size="16px" fill="#1e1e1e" text-anchor="start" style="white-space: pre;" direction="ltr" dominant-baseline="text-before-edge">all remaining space on</text><text x="0" y="38.4" font-family="Cascadia, Segoe UI Emoji" font-size="16px" fill="#1e1e1e" text-anchor="start" style="white-space: pre;" direction="ltr" dominant-baseline="text-before-edge">the page</text></g><g transform="translate(684.2857142857143 141.42857142857144) rotate(0 65.625 28.80000000000001)"><text x="0" y="0" font-family="Cascadia, Segoe UI Emoji" font-size="16px" fill="#1e1e1e" text-anchor="start" style="white-space: pre;" direction="ltr" dominant-baseline="text-before-edge">- file preview</text><text x="0" y="19.2" font-family="Cascadia, Segoe UI Emoji" font-size="16px" fill="#1e1e1e" text-anchor="start" style="white-space: pre;" direction="ltr" dominant-baseline="text-before-edge">- tag list</text><text x="0" y="38.4" font-family="Cascadia, Segoe UI Emoji" font-size="16px" fill="#1e1e1e" text-anchor="start" style="white-space: pre;" direction="ltr" dominant-baseline="text-before-edge">- submit</text></g><g stroke-linecap="round"><g transform="translate(841.4285714285714 566.0606306363067) rotate(0 -112.70563934291988 -2.532352177717655)"><path d="M1.68 1.25 C-49.1 -3.13, -99.65 -2.86, -225.44 -6.31 M-0.72 0.24 C-77.33 0.21, -153.18 -2.12, -227.09 -5.86" stroke="#1e1e1e" stroke-width="1" fill="none"></path></g><g transform="translate(841.4285714285714 566.0606306363067) rotate(0 -112.70563934291988 -2.532352177717655)"><path d="M-196.51 -13.41 C-203.61 -13.59, -210.5 -9.92, -225.1 -7 M-199.32 -14.59 C-208.62 -11.04, -217.14 -8.61, -227.03 -6.48" stroke="#1e1e1e" stroke-width="1" fill="none"></path></g><g transform="translate(841.4285714285714 566.0606306363067) rotate(0 -112.70563934291988 -2.532352177717655)"><path d="M-197.42 7.09 C-204.41 2.4, -211.1 1.56, -225.1 -7 M-200.22 5.91 C-209.38 2.51, -217.6 -1.98, -227.03 -6.48" stroke="#1e1e1e" stroke-width="1" fill="none"></path></g></g><mask></mask><g stroke-linecap="round"><g transform="translate(664.2857142857146 122.22693956602387) rotate(0 -36.38348656076357 2.6822845873341805)"><path d="M-0.55 1.76 C-18.79 -0.08, -39.58 2.04, -71.9 5.68 M0.97 -0.31 C-21.33 0.92, -44.14 3.99, -73.73 4.64" stroke="#1e1e1e" stroke-width="1" fill="none"></path></g><g transform="translate(664.2857142857146 122.22693956602387) rotate(0 -36.38348656076357 2.6822845873341805)"><path d="M-46.58 -5.12 C-52.81 -5.43, -61.56 -1.58, -72.14 5.4 M-45.07 -7.19 C-53.48 -4.13, -62.47 0.94, -73.98 4.36" stroke="#1e1e1e" stroke-width="1" fill="none"></path></g><g transform="translate(664.2857142857146 122.22693956602387) rotate(0 -36.38348656076357 2.6822845873341805)"><path d="M-45.66 15.38 C-52.08 9.68, -61.08 8.15, -72.14 5.4 M-44.14 13.31 C-53.01 10.18, -62.27 9.06, -73.98 4.36" stroke="#1e1e1e" stroke-width="1" fill="none"></path></g></g><mask></mask><g transform="translate(668.5714285714286 532.8571428571428) rotate(0 60.9375 9.600000000000023)"><text x="0" y="0" font-family="Cascadia, Segoe UI Emoji" font-size="16px" fill="#1e1e1e" text-anchor="start" style="white-space: pre;" direction="ltr" dominant-baseline="text-before-edge">Query Success</text></g><g stroke-linecap="round"><g transform="translate(358.5714285714288 700.0000000000001) rotate(0 69.6822442789562 66.78662946208237)"><path d="M0.33 -0.85 C15.89 34.56, 27.08 67.53, 59.02 134.03 M-0.91 0.55 C22.53 50.78, 44.41 101.15, 57.6 133.66 M56.95 134.42 C87 92.9, 112.56 51.74, 140.27 3.53 M58.3 131.91 C77.62 103.75, 97.06 74.29, 139.2 3.51" stroke="#1e1e1e" stroke-width="1" fill="none"></path></g><g transform="translate(358.5714285714288 700.0000000000001) rotate(0 69.6822442789562 66.78662946208237)"><path d="M133.73 32.1 C136.88 27.13, 134.91 19.64, 139.65 4.68 M132.49 33.5 C136.37 21.76, 137.96 9.73, 138.23 4.32" stroke="#1e1e1e" stroke-width="1" fill="none"></path></g><g transform="translate(358.5714285714288 700.0000000000001) rotate(0 69.6822442789562 66.78662946208237)"><path d="M116.17 21.48 C123.65 19.13, 126.06 14.28, 139.65 4.68 M114.93 22.88 C125.51 15.09, 133.86 7.14, 138.23 4.32" stroke="#1e1e1e" stroke-width="1" fill="none"></path></g></g><mask></mask><g transform="translate(387.7338636903513 781.6660300624173) rotate(302.52022131248674 84.375 9.600000000000023)"><text x="0" y="0" font-family="Cascadia, Segoe UI Emoji" font-size="16px" fill="#1e1e1e" text-anchor="start" style="white-space: pre;" direction="ltr" dominant-baseline="text-before-edge">next\prev resource</text></g><g stroke-linecap="round"><g transform="translate(871.4285714285714 495.71428571428567) rotate(0 109.69354735966681 -141.74877602860033)"><path d="M-0.45 -1.17 C41.59 -104.25, 82.34 -207.29, 112.97 -281.89 M-0.57 0.1 C28.82 -74.06, 58.82 -149.27, 113.14 -282.71 M114.14 -281.59 C139.11 -220.56, 164.3 -157.87, 219.95 -12.92 M113.45 -283.6 C137.89 -220, 162.79 -159.08, 218.4 -11.84" stroke="#1e1e1e" stroke-width="1" fill="none"></path></g><g transform="translate(871.4285714285714 495.71428571428567) rotate(0 109.69354735966681 -141.74877602860033)"><path d="M198.15 -36.15 C204.27 -28.06, 211.02 -20.05, 218.56 -10.51 M197.99 -34.39 C204.39 -27.82, 209.62 -21.87, 218.8 -11.64" stroke="#1e1e1e" stroke-width="1" fill="none"></path></g><g transform="translate(871.4285714285714 495.71428571428567) rotate(0 109.69354735966681 -141.74877602860033)"><path d="M217.32 -43.46 C216.41 -32.69, 216.19 -22.02, 218.56 -10.51 M217.16 -41.71 C218.51 -33.37, 218.66 -25.47, 218.8 -11.64" stroke="#1e1e1e" stroke-width="1" fill="none"></path></g></g><mask></mask><g transform="translate(801.4285714285714 394.2857142857142) rotate(294.383548279724 84.375 9.600000000000023)"><text x="0" y="0" font-family="Cascadia, Segoe UI Emoji" font-size="16px" fill="#1e1e1e" text-anchor="start" style="white-space: pre;" direction="ltr" dominant-baseline="text-before-edge">if result is empty</text></g><g transform="translate(906.8098048857897 374.6793247365621) rotate(62.64083910699865 201.5625 19.19999999999999)"><text x="0" y="0" font-family="Cascadia, Segoe UI Emoji" font-size="16px" fill="#1e1e1e" text-anchor="start" style="white-space: pre;" direction="ltr" dominant-baseline="text-before-edge">Add status message explaining problem</text><text x="0" y="19.2" font-family="Cascadia, Segoe UI Emoji" font-size="16px" fill="#1e1e1e" text-anchor="start" style="white-space: pre;" direction="ltr" dominant-baseline="text-before-edge">empty result / invalid tag / in/ex conflict</text></g><g stroke-linecap="round" transform="translate(10 10) rotate(0 640.7142857142858 443.57142857142884)"><path d="M0.3 0.67 C271.97 -1.27, 544.8 -0.64, 1281.31 0.53 M0.07 0.34 C495.47 -3.76, 991.36 -3.42, 1281.23 0.16 M1281.61 0.44 C1280.79 232.3, 1280.26 464.78, 1280.82 887.88 M1281.71 -0.34 C1282 313.75, 1282.2 626.99, 1281.09 887.54 M1280.69 886.67 C1022.98 890.28, 765.2 891.36, 0.31 886.59 M1281.03 887.28 C996.56 882, 712.07 881.78, 0.12 887.07 M0.28 887.46 C0.32 623.43, 1 359.83, -0.37 -0.8 M0.24 886.79 C-1.41 598.37, -1.4 308.74, -0.39 0.28" stroke="#1e1e1e" stroke-width="1" fill="none"></path></g><g transform="translate(25.714285714285666 29.94285714285718) rotate(0 65.625 16.799999999999997)"><text x="0" y="0" font-family="Cascadia, Segoe UI Emoji" font-size="28px" fill="#1e1e1e" text-anchor="start" style="white-space: pre;" direction="ltr" dominant-baseline="text-before-edge">Site Map</text></g></svg>